<?xml version="1.0" standalone="no"?>
<!DOCTYPE svg PUBLIC "-//W3C//DTD SVG 20010904//EN"
 "http://www.w3.org/TR/2001/REC-SVG-20010904/DTD/svg10.dtd">
<svg version="1.0" xmlns="http://www.w3.org/2000/svg"
 width="500.000000pt" height="500.000000pt" viewBox="0 0 500.000000 500.000000"
 preserveAspectRatio="xMidYMid meet">

<g transform="translate(0.000000,500.000000) scale(0.100000,-0.100000)"
fill="#2874F0" stroke="none">
<path d="M1128 3161 c-83 -21 -168 -78 -218 -146 -51 -68 -68 -103 -91 -192
-56 -219 20 -448 183 -555 74 -49 138 -68 227 -68 124 0 121 -2 121 100 l0 89
-54 -6 c-68 -7 -117 9 -168 55 -114 103 -132 313 -40 451 46 68 103 101 174
101 106 0 175 -48 227 -160 24 -53 25 -64 29 -275 3 -217 13 -285 44 -322 7
-8 36 -13 79 -13 l69 0 -2 463 -3 462 -95 0 -95 0 -3 -63 -3 -64 -41 47 c-46
52 -109 87 -186 104 -67 14 -73 14 -154 -8z"/>
<path d="M2240 3157 c-19 -6 -57 -33 -84 -59 -27 -26 -51 -48 -52 -48 -2 0 -4
21 -6 48 l-3 47 -112 2 c-90 1 -113 -1 -117 -13 -3 -8 -5 -322 -3 -697 l2
-682 118 -3 119 -3 -6 403 c-3 222 -9 447 -12 500 -9 154 24 249 109 312 17
13 47 21 84 24 153 10 242 -119 231 -333 -9 -171 -90 -275 -215 -275 -22 0
-23 -4 -23 -84 0 -78 1 -84 23 -90 65 -17 175 9 249 60 71 49 133 150 163 265
21 78 24 232 6 309 -31 131 -108 238 -212 295 -46 25 -67 29 -139 32 -47 1
-101 -3 -120 -10z"/>
<path d="M3125 3161 c-181 -48 -296 -265 -282 -531 10 -190 83 -325 211 -390
60 -30 80 -35 155 -38 70 -3 95 0 134 17 61 26 110 63 128 98 14 26 14 25 19
-33 l5 -59 105 0 105 0 0 460 0 460 -105 0 -105 0 -5 -53 -5 -52 -27 34 c-44
55 -122 88 -220 92 -46 2 -96 0 -113 -5z m218 -187 c61 -21 121 -86 141 -155
20 -67 20 -190 1 -257 -19 -61 -68 -129 -114 -156 -24 -14 -52 -20 -95 -20
-94 1 -145 35 -188 129 -20 43 -23 66 -23 170 0 104 3 127 23 170 29 63 57 93
107 116 49 23 88 24 148 3z"/>
<path d="M4239 3150 c-62 -11 -149 -81 -149 -120 0 -5 -4 -10 -10 -10 -6 0
-10 26 -10 59 0 72 -1 73 -126 70 -69 -1 -94 -5 -98 -15 -3 -8 -4 -215 -3
-462 l2 -447 110 0 110 0 6 275 c4 190 9 286 19 310 34 91 109 144 199 139 26
-1 52 1 59 5 16 10 16 157 0 178 -16 19 -62 27 -109 18z"/>
</g>
</svg>
