<?xml version="1.0" standalone="no"?>
<!DOCTYPE svg PUBLIC "-//W3C//DTD SVG 20010904//EN"
 "http://www.w3.org/TR/2001/REC-SVG-20010904/DTD/svg10.dtd">
<svg version="1.0" xmlns="http://www.w3.org/2000/svg"
 width="500.000000pt" height="500.000000pt" viewBox="0 0 500.000000 500.000000"
 preserveAspectRatio="xMidYMid meet">

<g transform="translate(0.000000,500.000000) scale(0.100000,-0.100000)"
fill="#2874F0" stroke="none">
<path d="M1128 3161 c-83 -21 -168 -78 -218 -146 -51 -68 -68 -103 -91 -192
-56 -219 20 -448 183 -555 74 -49 138 -68 227 -68 124 0 121 -2 121 100 l0 89
-54 -6 c-68 -7 -117 9 -168 55 -114 103 -132 313 -40 451 46 68 103 101 174
101 106 0 175 -48 227 -160 24 -53 25 -64 29 -275 3 -217 13 -285 44 -322 7
-8 36 -13 79 -13 l69 0 -2 463 -3 462 -95 0 -95 0 -3 -63 -3 -64 -41 47 c-46
52 -109 87 -186 104 -67 14 -73 14 -154 -8z"/>
</g>
</svg>
